<svg width="425" height="340" viewBox="0 0 425 340" fill="none" xmlns="http://www.w3.org/2000/svg">
<g opacity="0.1">
<path d="M154.292 58.9064C153.845 58.9115 153.398 58.9459 152.956 59.0094C151.963 59.1398 150.963 59.2055 149.961 59.2063C146.249 59.2034 142.594 58.2941 139.314 56.5574C138.816 56.2888 138.368 56.0233 137.888 55.7479C137.659 55.5953 137.449 55.4428 137.22 55.3009C137.018 55.1605 136.816 55.0262 136.651 54.8942C135.877 54.346 134.953 54.0506 134.006 54.0489C133.056 54.0439 132.13 54.3398 131.36 54.8942V54.8942C131.18 55.0262 130.978 55.1605 130.772 55.3009C130.553 55.4435 130.342 55.5938 130.114 55.7479C129.633 56.0211 129.195 56.2888 128.693 56.5574C125.411 58.2966 121.754 59.2061 118.041 59.2063C117.03 59.206 116.02 59.1403 115.018 59.0094C114.578 58.9454 114.135 58.911 113.691 58.9064C111.23 58.9121 108.872 59.8912 107.13 61.6299C105.389 63.3687 104.406 65.7259 104.397 68.1867V87.2537C104.375 87.6115 104.375 87.9846 104.375 88.3447C104.384 96.5231 107.221 104.447 112.406 110.772C117.59 117.097 124.803 121.434 132.821 123.047C133.213 123.112 133.611 123.143 134.009 123.141C134.376 123.142 134.743 123.116 135.106 123.065C143.093 121.459 150.284 117.154 155.472 110.874C160.661 104.594 163.531 96.7197 163.602 88.5736V68.1867C163.597 65.7216 162.614 63.3592 160.868 61.6189C159.122 59.8787 156.757 58.903 154.292 58.9064V58.9064Z" fill="#124E79"/>
<path d="M258.49 58.9065C258.052 58.9107 257.614 58.9451 257.18 59.0095C256.181 59.1393 255.175 59.205 254.167 59.2063C250.453 59.2023 246.795 58.2931 243.511 56.5574C243.023 56.2889 242.57 56.0234 242.094 55.748C241.865 55.5954 241.646 55.4428 241.417 55.3009C241.215 55.1605 241.036 55.0262 240.825 54.8943C240.064 54.3388 239.144 54.0425 238.202 54.0489C237.254 54.0486 236.33 54.3441 235.557 54.8943C235.369 55.0262 235.158 55.1605 234.97 55.3009C234.759 55.4436 234.549 55.5939 234.328 55.748C233.849 56.0211 233.364 56.2889 232.902 56.5574C229.618 58.2927 225.96 59.2018 222.246 59.2063C221.238 59.206 220.232 59.1403 219.233 59.0095C218.794 58.9448 218.35 58.9104 217.906 58.9065C215.444 58.9073 213.083 59.8848 211.34 61.6247C209.598 63.3645 208.617 65.7244 208.612 68.1867V87.2538C208.595 87.6116 208.595 87.9846 208.595 88.3447C208.599 96.5236 211.435 104.449 216.619 110.775C221.804 117.1 229.018 121.437 237.037 123.047C237.42 123.11 237.809 123.142 238.198 123.141C238.571 123.142 238.945 123.116 239.315 123.065C247.302 121.459 254.494 117.155 259.683 110.875C264.872 104.595 267.743 96.7202 267.814 88.5736V68.1867C267.811 66.9651 267.568 65.7559 267.098 64.6284C266.628 63.5008 265.94 62.4768 265.075 61.615C264.209 60.7532 263.182 60.0705 262.052 59.6057C260.922 59.141 259.712 58.9034 258.49 58.9065V58.9065Z" fill="#124E79"/>
<path d="M102.202 112.954C101.759 112.958 101.316 112.986 100.876 113.04C99.8778 113.183 98.871 113.254 97.8629 113.254C94.1389 113.253 90.4719 112.34 87.1819 110.595C86.7028 110.341 86.2367 110.061 85.7789 109.775C85.5676 109.634 85.3486 109.494 85.106 109.34C84.9 109.212 84.72 109.067 84.5277 108.924V108.931C83.7581 108.386 82.8385 108.094 81.8956 108.094C80.9528 108.094 80.0332 108.386 79.2635 108.931V108.924C79.0842 109.067 78.8729 109.212 78.6761 109.34C78.4525 109.492 78.2366 109.635 78.0078 109.775C77.5286 110.064 77.0755 110.341 76.6009 110.595C73.312 112.343 69.6443 113.256 65.92 113.254C64.9088 113.255 63.899 113.183 62.898 113.04C62.4637 112.985 62.0265 112.957 61.5888 112.954C60.3691 112.952 59.1608 113.19 58.0332 113.655C56.9055 114.119 55.8805 114.802 55.0168 115.663C54.1532 116.525 53.4679 117.548 53 118.674C52.5322 119.8 52.291 121.008 52.2903 122.228V142.38C52.2975 150.556 55.13 158.478 60.3081 164.805C65.4862 171.132 72.6917 175.475 80.7047 177.099C81.0975 177.149 81.4928 177.176 81.8888 177.18C82.2572 177.175 82.6252 177.151 82.9912 177.108C90.9825 175.509 98.179 171.206 103.37 164.923C108.561 158.641 111.431 150.762 111.495 142.612V122.228C111.491 119.766 110.511 117.407 108.768 115.668C107.026 113.929 104.664 112.953 102.202 112.954V112.954Z" fill="#124E79"/>
<path d="M206.413 112.955C205.959 112.959 205.506 112.987 205.055 113.04C204.056 113.186 203.047 113.258 202.037 113.255C198.334 113.256 194.687 112.343 191.421 110.596C190.914 110.341 190.452 110.062 189.986 109.776C189.775 109.634 189.556 109.494 189.313 109.34C189.116 109.213 188.937 109.067 188.721 108.924V108.931C187.956 108.388 187.041 108.095 186.103 108.092C185.154 108.098 184.228 108.39 183.448 108.931V108.924C183.259 109.077 183.058 109.216 182.848 109.34C182.651 109.493 182.431 109.635 182.221 109.776C181.755 110.064 181.27 110.341 180.795 110.596C177.506 112.35 173.834 113.263 170.106 113.255C169.102 113.255 168.098 113.183 167.104 113.04C166.672 112.987 166.238 112.958 165.803 112.955C164.583 112.951 163.375 113.189 162.247 113.654C161.12 114.118 160.095 114.801 159.231 115.662C158.368 116.524 157.683 117.547 157.216 118.674C156.749 119.801 156.509 121.008 156.51 122.228V141.294C156.478 141.658 156.478 142.02 156.478 142.38C156.488 150.555 159.322 158.475 164.5 164.802C169.678 171.128 176.881 175.472 184.893 177.099C185.291 177.149 185.692 177.176 186.094 177.18C186.461 177.18 186.837 177.144 187.219 177.108C195.204 175.5 202.394 171.194 207.581 164.913C212.769 158.632 215.638 150.758 215.709 142.613V122.228C215.707 121.009 215.466 119.802 214.998 118.676C214.53 117.55 213.845 116.527 212.982 115.666C212.119 114.805 211.094 114.122 209.967 113.657C208.84 113.192 207.633 112.953 206.413 112.955V112.955Z" fill="#124E79"/>
<path d="M362.705 166.996C362.26 166.999 361.815 167.031 361.374 167.093C360.379 167.225 359.378 167.29 358.375 167.287C354.656 167.292 350.993 166.381 347.709 164.636C347.26 164.37 346.772 164.102 346.302 163.815C346.091 163.684 345.853 163.529 345.625 163.377C345.427 163.253 345.237 163.117 345.055 162.971V162.971C344.284 162.419 343.359 162.123 342.41 162.123C341.462 162.123 340.537 162.419 339.765 162.971V162.971C339.582 163.124 339.386 163.26 339.178 163.377C338.964 163.536 338.741 163.683 338.509 163.815C338.07 164.103 337.582 164.37 337.125 164.636C332.922 166.852 328.135 167.71 323.424 167.093C322.99 167.031 322.553 166.999 322.115 166.996C320.897 166.995 319.691 167.233 318.565 167.698C317.439 168.163 316.416 168.845 315.554 169.706C314.692 170.567 314.008 171.589 313.542 172.714C313.075 173.839 312.835 175.045 312.835 176.263V195.336C312.803 195.703 312.803 196.06 312.803 196.432C312.807 204.61 315.64 212.535 320.822 218.862C326.003 225.189 333.214 229.529 341.231 231.145C341.62 231.2 342.013 231.227 342.407 231.226C342.785 231.223 343.164 231.201 343.54 231.159C351.523 229.549 358.708 225.242 363.89 218.96C369.072 212.679 371.935 204.806 371.997 196.663V176.27C371.997 175.051 371.756 173.844 371.288 172.717C370.821 171.591 370.136 170.569 369.273 169.707C368.41 168.846 367.386 168.163 366.259 167.698C365.132 167.233 363.924 166.995 362.705 166.996V166.996Z" fill="#124E79"/>
<path d="M206.413 221.043C205.959 221.045 205.505 221.078 205.055 221.141C204.054 221.265 203.046 221.328 202.037 221.329C198.337 221.332 194.692 220.429 191.421 218.7C190.914 218.414 190.452 218.145 189.986 217.868C189.775 217.726 189.556 217.578 189.313 217.43C189.116 217.305 188.937 217.162 188.721 217.028C187.962 216.471 187.044 216.172 186.103 216.174C185.151 216.175 184.223 216.474 183.448 217.028C183.257 217.174 183.056 217.309 182.848 217.43C182.651 217.578 182.431 217.726 182.221 217.868C181.755 218.146 181.27 218.414 180.795 218.7C177.5 220.436 173.831 221.339 170.106 221.329C169.103 221.325 168.1 221.262 167.104 221.141C166.673 221.077 166.238 221.044 165.803 221.043C164.583 221.04 163.375 221.278 162.247 221.744C161.119 222.209 160.095 222.892 159.231 223.754C158.368 224.616 157.683 225.639 157.216 226.766C156.749 227.893 156.509 229.101 156.51 230.321V249.373C156.478 249.739 156.478 250.11 156.478 250.473C156.49 258.647 159.324 266.567 164.501 272.893C169.679 279.219 176.882 283.564 184.893 285.192C185.291 285.241 185.692 285.268 186.094 285.272C186.47 285.269 186.846 285.243 187.219 285.192C195.204 283.582 202.393 279.276 207.58 272.995C212.767 266.715 215.637 258.842 215.709 250.696V230.321C215.706 227.858 214.725 225.497 212.982 223.757C211.239 222.017 208.876 221.041 206.413 221.043V221.043Z" fill="#124E79"/>
<path d="M310.62 221.043C310.173 221.042 309.726 221.075 309.284 221.141C308.287 221.262 307.284 221.325 306.28 221.329C302.563 221.333 298.9 220.431 295.61 218.7C295.144 218.414 294.66 218.145 294.203 217.868C293.997 217.726 293.759 217.578 293.535 217.43C293.324 217.305 293.127 217.162 292.93 217.028C292.176 216.474 291.265 216.175 290.33 216.174C289.377 216.17 288.447 216.469 287.676 217.028V217.028C287.488 217.162 287.281 217.305 287.089 217.43C286.86 217.578 286.618 217.726 286.421 217.868C285.963 218.146 285.493 218.414 285.004 218.7C281.715 220.432 278.052 221.334 274.334 221.329C273.324 221.324 272.315 221.261 271.313 221.141C270.887 221.077 270.457 221.044 270.026 221.043C268.805 221.038 267.595 221.274 266.465 221.739C265.335 222.203 264.308 222.885 263.443 223.748C262.578 224.61 261.892 225.634 261.423 226.762C260.955 227.89 260.714 229.099 260.715 230.321V249.373C260.706 249.739 260.706 250.11 260.706 250.473C260.709 258.648 263.538 266.57 268.714 272.897C273.89 279.225 281.094 283.568 289.106 285.192C289.503 285.241 289.903 285.268 290.303 285.272C290.677 285.27 291.05 285.243 291.419 285.192C299.409 283.592 306.603 279.288 311.792 273.005C316.98 266.723 319.845 258.844 319.906 250.696V230.321C319.903 227.86 318.923 225.5 317.182 223.761C315.441 222.021 313.081 221.044 310.62 221.043V221.043Z" fill="#124E79"/>
<path d="M39.2632 58.2696C37.8303 57.8424 36.4441 57.2716 35.1258 56.566C34.9595 56.479 34.7894 56.3669 34.6185 56.2891L0.0808105 90.742C0.201851 92.6787 0.479191 94.6025 0.910115 96.4945L39.2632 58.2696Z" fill="#124E79"/>
<path d="M56.2284 61.1133L7.2356 110.008C8.16152 111.26 9.16792 112.449 10.2484 113.57L58.9757 64.9828C58.3952 63.485 57.451 62.1552 56.2284 61.1133V61.1133Z" fill="#124E79"/>
<path d="M51.6868 59.0564C51.2011 58.9751 50.7089 58.9391 50.2166 58.9488C49.7833 58.9463 49.3502 58.9695 48.9196 59.0183C47.9089 59.1632 46.889 59.2341 45.8679 59.2304C45.5589 59.2304 45.2408 59.2151 44.9311 59.2059L2.46582 101.562C3.07528 103.095 3.77903 104.588 4.57302 106.034L51.6868 59.0564Z" fill="#124E79"/>
<path d="M0.000976562 84.1934L30.1762 54.0791C30.0412 54.058 29.9047 54.0475 29.7681 54.0479C28.8207 54.0512 27.8974 54.3464 27.1238 54.8932V54.8932C26.9349 55.0378 26.7388 55.1728 26.5363 55.2975C26.3158 55.4455 26.106 55.5905 25.8459 55.7446C25.4064 56.0284 24.9174 56.2985 24.4428 56.5625C22.7341 57.4632 20.9192 58.146 19.0406 58.5949L0.000976562 77.5994V84.1934Z" fill="#124E79"/>
<path d="M59.586 77.5924V71L13.7639 116.671C15.0235 117.64 16.3426 118.53 17.7136 119.334L59.586 77.5924Z" fill="#124E79"/>
<path d="M59.473 90.905C59.5142 90.1291 59.5852 89.3517 59.5852 88.5781C59.5852 87.8983 59.5539 87.2323 59.5142 86.5708L59.5852 86.5548V84.1943L22.1553 121.522C23.7728 122.191 25.4397 122.734 27.141 123.146L59.473 90.905Z" fill="#124E79"/>
<path d="M11.8666 59.1669C11.4592 59.1287 11.0777 59.0814 10.6611 59.0189C10.2265 58.9698 9.78933 58.9466 9.35194 58.9495C6.93644 58.9486 4.61419 59.8819 2.87113 61.5542C1.12807 63.2264 0.0992673 65.508 0 67.9215V67.9215V70.9999L11.8666 59.1669Z" fill="#124E79"/>
<path d="M57.9855 98.9805L34.2791 122.671C39.8686 120.966 44.9537 117.914 49.0873 113.783C53.221 109.652 56.2765 104.569 57.9855 98.9805Z" fill="#124E79"/>
<path d="M195.492 4.17889C194.077 3.76739 192.71 3.20654 191.413 2.50579C191.226 2.4234 191.073 2.31125 190.893 2.22656L156.605 36.4263C156.728 38.3614 157.002 40.284 157.425 42.1764L195.492 4.17889Z" fill="#124E79"/>
<path d="M212.358 7.0293L163.684 55.5941C164.607 56.8387 165.615 58.0182 166.701 59.1242L215.078 10.8729C214.517 9.37942 213.58 8.0557 212.358 7.0293V7.0293Z" fill="#124E79"/>
<path d="M207.848 4.97895C207.366 4.90474 206.878 4.87131 206.391 4.87901C205.961 4.87599 205.531 4.89995 205.104 4.95073C204.087 5.07722 203.063 5.14345 202.038 5.14909C201.751 5.14909 201.455 5.12467 201.137 5.12467L158.955 47.1947C159.549 48.7282 160.259 50.2139 161.08 51.6387L207.848 4.97895Z" fill="#124E79"/>
<path d="M156.512 29.9532L186.513 0.0404351C186.374 0.0181864 186.235 0.00468118 186.095 0C185.147 0.00993434 184.224 0.307651 183.449 0.853714V0.853714C183.258 0.995645 183.057 1.12486 182.849 1.24052C182.652 1.3931 182.432 1.54035 182.204 1.69446C181.755 1.98056 181.27 2.24911 180.787 2.50621C179.092 3.40445 177.288 4.08209 175.421 4.52263L156.512 23.3967V29.9532Z" fill="#124E79"/>
<path d="M215.702 23.3877V16.835L170.199 62.2024C171.444 63.1747 172.754 64.0605 174.121 64.8535L215.702 23.3877Z" fill="#124E79"/>
<path d="M215.581 36.6081C215.622 35.8452 215.703 35.0678 215.703 34.2881C215.703 33.6213 215.662 32.9644 215.623 32.2984L215.703 32.2877V29.9531L178.52 67.013C180.125 67.6785 181.78 68.2175 183.47 68.6251L215.581 36.6081Z" fill="#124E79"/>
<path d="M168.311 5.06691C167.908 5.05252 167.505 5.0138 167.106 4.95094C166.674 4.89976 166.24 4.87581 165.805 4.87923C163.406 4.87119 161.097 5.79543 159.365 7.45702C157.634 9.11861 156.616 11.3877 156.525 13.7856H156.512V16.8373L168.311 5.06691Z" fill="#124E79"/>
<path d="M214.124 44.6387L190.534 68.162C196.086 66.4613 201.137 63.4289 205.249 59.3289C209.361 55.2289 212.408 50.1857 214.124 44.6387V44.6387Z" fill="#124E79"/>
<path d="M247.686 166.31C246.268 165.877 244.893 165.312 243.579 164.625C243.399 164.536 243.265 164.43 243.081 164.346L208.808 198.561C208.909 200.488 209.173 202.402 209.598 204.283L247.686 166.31Z" fill="#124E79"/>
<path d="M264.569 169.15L215.864 217.708C216.8 218.95 217.816 220.13 218.904 221.241L267.274 172.987C266.704 171.504 265.774 170.186 264.569 169.15V169.15Z" fill="#124E79"/>
<path d="M260.045 167.102C259.563 167.024 259.076 166.987 258.588 166.991C258.154 166.989 257.721 167.016 257.291 167.071C256.284 167.201 255.27 167.267 254.256 167.268C253.947 167.268 253.629 167.246 253.34 167.246L211.15 209.298C211.736 210.84 212.442 212.333 213.261 213.765L260.045 167.102Z" fill="#124E79"/>
<path d="M208.709 192.069L238.674 162.163C238.549 162.131 238.421 162.117 238.292 162.122C237.346 162.121 236.424 162.417 235.656 162.97C235.437 163.095 235.28 163.247 235.077 163.369C234.826 163.511 234.629 163.662 234.378 163.794C233.933 164.103 233.467 164.38 232.984 164.624C231.293 165.523 229.492 166.197 227.626 166.629L208.705 185.505L208.709 192.069Z" fill="#124E79"/>
<path d="M267.869 185.506V178.96L222.418 224.316C223.654 225.297 224.96 226.184 226.327 226.972L267.869 185.506Z" fill="#124E79"/>
<path d="M267.811 198.73C267.82 197.967 267.869 197.197 267.869 196.419C267.869 195.748 267.86 195.086 267.82 194.424L267.869 194.411V192.072L230.73 229.15C232.335 229.815 233.99 230.35 235.68 230.753L267.811 198.73Z" fill="#124E79"/>
<path d="M220.491 167.199C220.07 167.163 219.698 167.122 219.285 167.071C218.861 167.016 218.434 166.989 218.007 166.99C215.607 166.983 213.297 167.907 211.564 169.567C209.83 171.227 208.807 173.494 208.71 175.892V175.892V178.959L220.491 167.199Z" fill="#124E79"/>
<path d="M266.304 206.749L242.736 230.268C248.288 228.574 253.34 225.544 257.449 221.444C261.558 217.343 264.598 212.298 266.304 206.749V206.749Z" fill="#124E79"/>
<path d="M247.686 274.641C246.269 274.207 244.895 273.645 243.579 272.962C243.419 272.861 243.252 272.768 243.081 272.686L208.808 306.89C208.908 308.812 209.172 310.722 209.598 312.6L247.686 274.641Z" fill="#124E79"/>
<path d="M264.569 277.474L215.864 326.027C216.803 327.272 217.819 328.458 218.904 329.578L267.274 281.324C266.704 279.837 265.775 278.514 264.569 277.474Z" fill="#124E79"/>
<path d="M260.045 275.43C259.563 275.351 259.076 275.312 258.588 275.314C258.154 275.316 257.721 275.344 257.291 275.398C256.284 275.523 255.27 275.587 254.256 275.59C253.947 275.59 253.629 275.582 253.34 275.582L211.15 317.638C211.74 319.171 212.446 320.657 213.261 322.083L260.045 275.43Z" fill="#124E79"/>
<path d="M208.709 300.398L238.674 270.491C238.549 270.46 238.421 270.445 238.292 270.446C237.346 270.447 236.424 270.744 235.656 271.296V271.296C235.437 271.426 235.28 271.565 235.077 271.69C234.826 271.843 234.629 271.995 234.378 272.132C233.929 272.434 233.463 272.71 232.984 272.959C231.291 273.854 229.49 274.529 227.626 274.967L208.705 293.84L208.709 300.398Z" fill="#124E79"/>
<path d="M267.869 293.83V287.289L222.418 332.65C223.654 333.629 224.961 334.515 226.327 335.302L267.869 293.83Z" fill="#124E79"/>
<path d="M267.811 307.055C267.82 306.292 267.869 305.521 267.869 304.734C267.869 304.072 267.86 303.41 267.82 302.751L267.869 302.737V300.398L230.73 337.465C232.333 338.137 233.989 338.677 235.68 339.079L267.811 307.055Z" fill="#124E79"/>
<path d="M220.491 275.52C220.07 275.488 219.698 275.448 219.285 275.399C218.861 275.346 218.434 275.318 218.007 275.314C215.606 275.309 213.295 276.234 211.562 277.896C209.828 279.558 208.806 281.827 208.71 284.226V287.289L220.491 275.52Z" fill="#124E79"/>
<path d="M266.304 315.091L242.736 338.605C248.285 336.907 253.334 333.876 257.443 329.777C261.551 325.678 264.593 320.636 266.304 315.091V315.091Z" fill="#124E79"/>
<path d="M403.896 112.28C402.488 111.843 401.122 111.278 399.817 110.592C399.642 110.508 399.473 110.414 399.31 110.309L365.031 144.53C365.131 146.459 365.402 148.376 365.843 150.257L403.896 112.28Z" fill="#124E79"/>
<path d="M420.771 115.124L372.097 163.664C373.024 164.91 374.031 166.096 375.11 167.214L423.487 118.947C422.918 117.465 421.984 116.15 420.771 115.124V115.124Z" fill="#124E79"/>
<path d="M416.26 113.085C415.782 112.995 415.297 112.951 414.811 112.955C414.382 112.952 413.953 112.981 413.528 113.041C412.519 113.163 411.505 113.228 410.489 113.237C410.148 113.237 409.848 113.225 409.561 113.217L367.351 155.264C367.971 156.787 368.673 158.275 369.454 159.722L416.26 113.085Z" fill="#124E79"/>
<path d="M364.91 138.036L394.907 108.13C394.769 108.107 394.63 108.095 394.49 108.094C393.553 108.092 392.64 108.39 391.885 108.944V108.944C391.683 109.063 391.486 109.214 391.298 109.342C391.048 109.478 390.836 109.637 390.598 109.767C390.154 110.077 389.686 110.354 389.2 110.594C387.507 111.492 385.707 112.169 383.842 112.608L364.909 131.48L364.91 138.036Z" fill="#124E79"/>
<path d="M424.089 131.479V124.923L378.636 170.286C379.87 171.246 381.162 172.129 382.505 172.932L424.089 131.479Z" fill="#124E79"/>
<path d="M424.007 144.692C424.034 143.941 424.088 143.166 424.088 142.371C424.088 141.713 424.088 141.052 424.034 140.397L424.088 140.381V138.036L386.933 175.096C388.535 175.772 390.191 176.313 391.882 176.715L424.007 144.692Z" fill="#124E79"/>
<path d="M376.719 113.154C376.289 113.137 375.908 113.087 375.509 113.04C374.223 112.865 372.915 112.96 371.668 113.319C370.421 113.677 369.262 114.292 368.266 115.123C367.27 115.954 366.458 116.984 365.881 118.147C365.305 119.309 364.978 120.579 364.919 121.875H364.91V124.922L376.719 113.154Z" fill="#124E79"/>
<path d="M422.528 152.718L398.969 176.25C404.52 174.551 409.569 171.517 413.676 167.415C417.783 163.312 420.822 158.266 422.528 152.718Z" fill="#124E79"/>
<path d="M403.91 220.363C402.49 219.937 401.116 219.371 399.808 218.673C399.647 218.592 399.476 218.494 399.31 218.404L365.032 252.609C365.132 254.536 365.399 256.451 365.83 258.331L403.91 220.363Z" fill="#124E79"/>
<path d="M420.771 223.198L372.088 271.765C373.028 273.005 374.045 274.185 375.133 275.297L423.496 227.048C422.921 225.559 421.984 224.236 420.771 223.198V223.198Z" fill="#124E79"/>
<path d="M416.269 221.156C415.79 221.076 415.305 221.038 414.82 221.043C414.388 221.04 413.957 221.067 413.529 221.124C412.52 221.251 411.506 221.319 410.489 221.33C410.167 221.33 409.848 221.303 409.562 221.303L367.38 263.359C367.976 264.893 368.68 266.383 369.487 267.817L416.269 221.156Z" fill="#124E79"/>
<path d="M364.919 246.118L394.897 216.219C394.773 216.188 394.644 216.173 394.516 216.174C393.57 216.169 392.647 216.468 391.884 217.028V217.028C391.673 217.148 391.502 217.305 391.297 217.421C391.047 217.564 390.858 217.726 390.61 217.855C390.159 218.156 389.689 218.429 389.203 218.672C387.515 219.572 385.717 220.248 383.854 220.684L364.921 239.566L364.919 246.118Z" fill="#124E79"/>
<path d="M424.106 239.563V233.026L378.636 278.374C379.875 279.35 381.181 280.238 382.545 281.03L424.106 239.563Z" fill="#124E79"/>
<path d="M424.035 252.78C424.035 252.011 424.106 251.246 424.106 250.459C424.106 249.793 424.088 249.135 424.035 248.469L424.106 248.46V246.117L386.945 283.195C388.549 283.857 390.2 284.395 391.885 284.805L424.035 252.78Z" fill="#124E79"/>
<path d="M376.719 221.237C376.289 221.219 375.907 221.165 375.517 221.12C375.09 221.065 374.66 221.039 374.23 221.04C371.829 221.035 369.518 221.96 367.782 223.62C366.047 225.28 365.021 227.548 364.919 229.947V233.023L376.719 221.237Z" fill="#124E79"/>
<path d="M422.528 260.801L398.969 284.319C404.52 282.624 409.57 279.593 413.677 275.493C417.784 271.393 420.823 266.348 422.528 260.801V260.801Z" fill="#124E79"/>
</g>
</svg>
